<svg height="512" viewBox="0 0 64 64" width="512" xmlns="http://www.w3.org/2000/svg"><g fill="#ffc477"><circle cx="50" cy="14" r="11"/><circle cx="50" cy="50" r="11"/><circle cx="14" cy="14" r="11"/><circle cx="14" cy="50" r="11"/></g><circle cx="14" cy="14" fill="#ffb655" r="9"/><circle cx="50" cy="14" fill="#ffb655" r="9"/><circle cx="50" cy="50" fill="#ffb655" r="9"/><circle cx="14" cy="50" fill="#ffb655" r="9"/><path d="m48.97 44.73a3 3 0 0 1 -4.24 4.24l-7.07-7.07a8.015 8.015 0 0 0 -11.32 0l-7.07 7.07a3 3 0 0 1 -4.24-4.24l4.33-4.33h.01l2.73-2.74a8.015 8.015 0 0 0 0-11.32l-2.73-2.73-4.34-4.34a3 3 0 1 1 4.24-4.24l4.34 4.34 2.73 2.73a8.015 8.015 0 0 0 11.32 0l2.74-2.74 4.33-4.33a3 3 0 0 1 4.24 4.24l-7.07 7.07a8.015 8.015 0 0 0 0 11.32l2.74 2.74z" fill="#57a4ff"/><circle cx="32" cy="32" fill="#ff3051" r="2"/><path d="m50 38a11.735 11.735 0 0 0 -5.153 1.191l-2.241-2.241a7.009 7.009 0 0 1 0-9.9l2.237-2.236a11.822 11.822 0 0 0 5.157 1.186 12.075 12.075 0 1 0 -10.81-6.847l-2.24 2.241a7.009 7.009 0 0 1 -9.9 0l-2.235-2.236a12.054 12.054 0 1 0 -5.657 5.657l2.236 2.235a7.009 7.009 0 0 1 0 9.9l-2.241 2.24a11.983 11.983 0 1 0 6.847 10.81 11.822 11.822 0 0 0 -1.186-5.157l2.236-2.237a7.009 7.009 0 0 1 9.9 0l2.241 2.241a11.735 11.735 0 0 0 -1.191 5.153 12 12 0 1 0 12-12zm-10-24a10 10 0 1 1 10 10 9.9 9.9 0 0 1 -3.654-.689l3.332-3.332a4 4 0 0 0 -5.657-5.657l-3.321 3.326a10.015 10.015 0 0 1 -.7-3.648zm-26 10a10.005 10.005 0 1 1 9.308-6.349l-3.329-3.329a4 4 0 0 0 -5.657 5.657l3.329 3.329a10.094 10.094 0 0 1 -3.651.692zm10 26a10.018 10.018 0 1 1 -6.352-9.3l-3.326 3.326a4 4 0 0 0 5.657 5.657l3.332-3.332a9.9 9.9 0 0 1 .689 3.649zm1.636-8.808-7.071 7.072a2 2 0 1 1 -2.829-2.829l7.072-7.071a9.01 9.01 0 0 0 0-12.728l-7.072-7.071a2 2 0 0 1 2.829-2.829l7.071 7.072a9.012 9.012 0 0 0 12.728 0l7.071-7.072a2 2 0 1 1 2.829 2.829l-7.072 7.071a9.01 9.01 0 0 0 0 12.728l7.072 7.071a2 2 0 1 1 -2.829 2.829l-7.071-7.072a9.012 9.012 0 0 0 -12.728 0zm24.364 18.808a10.011 10.011 0 0 1 -10-10 9.819 9.819 0 0 1 .692-3.651l3.329 3.329a4 4 0 0 0 5.657-5.657l-3.329-3.329a9.815 9.815 0 0 1 3.651-.692 10 10 0 0 1 0 20z"/><path d="m49 12a3 3 0 0 1 3 3 1 1 0 0 0 2 0 5.006 5.006 0 0 0 -5-5 1 1 0 0 0 0 2z"/><path d="m49 8a7.008 7.008 0 0 1 7 7 1 1 0 0 0 2 0 9.011 9.011 0 0 0 -9-9 1 1 0 0 0 0 2z"/><path d="m16 11a1 1 0 0 0 -1-1 5.006 5.006 0 0 0 -5 5 1 1 0 0 0 2 0 3 3 0 0 1 3-3 1 1 0 0 0 1-1z"/><path d="m15 8a1 1 0 0 0 0-2 9.011 9.011 0 0 0 -9 9 1 1 0 0 0 2 0 7.008 7.008 0 0 1 7-7z"/><path d="m49 54a5.006 5.006 0 0 0 5-5 1 1 0 0 0 -2 0 3 3 0 0 1 -3 3 1 1 0 0 0 0 2z"/><path d="m56 49a7.008 7.008 0 0 1 -7 7 1 1 0 0 0 0 2 9.011 9.011 0 0 0 9-9 1 1 0 0 0 -2 0z"/><path d="m15 52a3 3 0 0 1 -3-3 1 1 0 0 0 -2 0 5.006 5.006 0 0 0 5 5 1 1 0 0 0 0-2z"/><path d="m15 56a7.008 7.008 0 0 1 -7-7 1 1 0 0 0 -2 0 9.011 9.011 0 0 0 9 9 1 1 0 0 0 0-2z"/><path d="m32 29a3 3 0 1 0 3 3 3 3 0 0 0 -3-3zm0 4a1 1 0 1 1 1-1 1 1 0 0 1 -1 1z"/></svg>